<?xml version="1.0" standalone="no"?><!DOCTYPE svg PUBLIC "-//W3C//DTD SVG 1.1//EN" "http://www.w3.org/Graphics/SVG/1.1/DTD/svg11.dtd"><svg t="1552814393359" class="icon" style="" viewBox="0 0 1024 1024" version="1.1" xmlns="http://www.w3.org/2000/svg" p-id="42979" xmlns:xlink="http://www.w3.org/1999/xlink" width="128" height="128"><defs><style type="text/css"></style></defs><path d="M582.1 754.3l-140.3-0.7V590.7h140.3z" fill="#FFDDB8" p-id="42980"></path><path d="M582.1 651l-140.3 82.7v-143h140.3z" fill="#EBCCAA" p-id="42981"></path><path d="M512.4 206.8c-0.6 0-1.1-0.1-1.7-0.1-103 0-193.3 100.3-193.3 224.1s123.2 224.1 193.3 224.1c0.6 0 1.1 0 1.7-0.1v-448z" fill="#F5D4B1" p-id="42982"></path><path d="M512.4 206.8c0.6 0 1.1-0.1 1.7-0.1 103 0 193.3 100.3 193.3 224.1S584.2 654.9 514.1 654.9c-0.6 0-1.1 0-1.7-0.1v-448z" fill="#FFDDB8" p-id="42983"></path><path d="M295.8 367.6c-3.3-58.2-6.6-140.3 16.6-191.6 23.3-51.3 146.3-106.1 199.4-106.1S668 121.2 691.3 152c13.7 18.1 34.7 117.4 33.2 201.9-1 59.4-10.3 82.3-19.9 99.2-4.8 8.5 6.6-109.5-99.7-201.9-16.6-10.3-32.1 6.4-53.2 10.3-35.3 6.5-66.5 6.8-93.1 6.8-31 0-88.1 39.8-103 78.7-26.4 68.7-19.9 119.8-19.9 119.8s-36.6-41-39.9-99.2z" fill="#333333" p-id="42984"></path><path d="M294.587 433.448a51.3 25.7 72.645 1 0 49.06-15.333 51.3 25.7 72.645 1 0-49.06 15.333z" fill="#F5D4B1" p-id="42985"></path><path d="M512.1 723.5l-133.5 24s-85.5 37.6-109.5 75.3c-24 37.6-61.6 133.5-61.6 133.5H512V723.5z" fill="#E0ECFF" p-id="42986"></path><path d="M512.4 723.5l133.5 24s85.5 37.6 109.5 75.3c24 37.6 61.6 133.5 61.6 133.5H512.4V723.5z" fill="#FFFFFF" p-id="42987"></path><path d="M687.004 467.898a25.7 51.3 17.355 1 0 30.605-97.93 25.7 51.3 17.355 1 0-30.605 97.93z" fill="#FFDDB8" p-id="42988"></path><path d="M495.3 853.5l-56.9-126.6 71.8-3.4 75.3 3.4-58.2 126.6 10.2 102.7h-51.2z" fill="#7FB2FF" p-id="42989"></path><path d="M432.5 675.4l78.7 47.9L381.1 826V723.3z m157.4 0l-78.7 47.9 130 102.7V723.3z" fill="#FFFFFF" p-id="42990"></path><path d="M483.5 375.4h-112c-7.5 0-13.6 5.5-13.6 12.2v63.9c0 6.7 6.1 12.2 13.6 12.2h112c7.5 0 13.6-5.5 13.6-12.2v-63.9c0-6.7-6.1-12.2-13.6-12.2z m-0.8 67c0 6.7-6.1 12.2-13.6 12.2h-83.2c-7.5 0-13.6-5.5-13.6-12.2v-45.7c0-6.7 6.1-12.2 13.6-12.2h83.2c7.5 0 13.6 5.5 13.6 12.2v45.7z m174-67h-112c-7.5 0-13.6 5.5-13.6 12.2v63.9c0 6.7 6.1 12.2 13.6 12.2h112c7.5 0 13.6-5.5 13.6-12.2v-63.9c-0.1-6.7-6.1-12.2-13.6-12.2z m-0.9 67c0 6.7-6.1 12.2-13.6 12.2H559c-7.5 0-13.6-5.5-13.6-12.2v-45.7c0-6.7 6.1-12.2 13.6-12.2h83.2c7.5 0 13.6 5.5 13.6 12.2v45.7z" fill="#333333" p-id="42991"></path><path d="M490.3 416.2h47.5v13.6h-47.5z" fill="#333333" p-id="42992"></path></svg>